{
	"asset":{
		"generator":"Khronos glTF Blender I/O v3.6.28",
		"version":"2.0"
	},
	"scene":0,
	"scenes":[
		{
			"name":"Scene",
			"nodes":[
				5
			]
		}
	],
	"nodes":[
		{
			"mesh":0,
			"name":"infopanel_infopanel_0",
			"scale":[
				1.498673677444458,
				1,
				1.498673677444458
			],
			"translation":[
				72.77754211425781,
				347.6109619140625,
				36.88105010986328
			]
		},
		{
			"children":[
				0
			],
			"name":"Object_4",
			"translation":[
				0.7917633056640625,
				-0.0008101969724521041,
				-1.5906730890274048
			]
		},
		{
			"children":[
				1
			],
			"name":"infopanel",
			"rotation":[
				-0.70710688829422,
				0,
				0,
				0.7071066498756409
			],
			"scale":[
				0.9139583110809326,
				0.3324764370918274,
				0.9344594478607178
			],
			"translation":[
				-73.65286254882812,
				-32.60685348510742,
				116.69315338134766
			]
		},
		{
			"children":[
				2
			],
			"name":"RootNode"
		},
		{
			"children":[
				3
			],
			"name":"0597d9ebdda74b399f7b04f4227563a8.fbx",
			"rotation":[
				0.70710688829422,
				0,
				0,
				0.7071066498756409
			]
		},
		{
			"children":[
				4
			],
			"name":"Sketchfab_model",
			"rotation":[
				-0.70710688829422,
				0,
				0,
				0.7071066498756409
			]
		}
	],
	"materials":[
		{
			"doubleSided":true,
			"name":"Material.001",
			"pbrMetallicRoughness":{
				"baseColorFactor":[
					0.7835378050804138,
					0.17144080996513367,
					0.3185468018054962,
					1
				],
				"metallicFactor":0,
				"roughnessFactor":0.5
			}
		}
	],
	"meshes":[
		{
			"name":"infopanel_infopanel_0",
			"primitives":[
				{
					"attributes":{
						"POSITION":0,
						"NORMAL":1,
						"TEXCOORD_0":2
					},
					"indices":3,
					"material":0
				}
			]
		}
	],
	"accessors":[
		{
			"bufferView":0,
			"componentType":5126,
			"count":615,
			"max":[
				2.1057686805725098,
				0.9060034155845642,
				4.277096748352051
			],
			"min":[
				-3.6881351470947266,
				-0.9044496417045593,
				-1.0257506370544434
			],
			"type":"VEC3"
		},
		{
			"bufferView":1,
			"componentType":5126,
			"count":615,
			"type":"VEC3"
		},
		{
			"bufferView":2,
			"componentType":5126,
			"count":615,
			"type":"VEC2"
		},
		{
			"bufferView":3,
			"componentType":5123,
			"count":966,
			"type":"SCALAR"
		}
	],
	"bufferViews":[
		{
			"buffer":0,
			"byteLength":7380,
			"byteOffset":0,
			"target":34962
		},
		{
			"buffer":0,
			"byteLength":7380,
			"byteOffset":7380,
			"target":34962
		},
		{
			"buffer":0,
			"byteLength":4920,
			"byteOffset":14760,
			"target":34962
		},
		{
			"buffer":0,
			"byteLength":1932,
			"byteOffset":19680,
			"target":34963
		}
	],
	"buffers":[
		{
			"byteLength":21612,
			"uri":"data:application/octet-stream;base64,"
		}
	]
}
