{
  "accessors": [
    {
      "bufferView": 2,
      "componentType": 5126,
      "count": 1575,
      "max": [
        1.5908108949661255,
        1.5741593837738037,
        6.836738586425781
      ],
      "min": [
        -1.5771783590316772,
        -1.5537787675857544,
        1.846529483795166
      ],
      "type": "VEC3"
    },
    {
      "bufferView": 2,
      "byteOffset": 18900,
      "componentType": 5126,
      "count": 1575,
      "max": [
        0.9044755101203918,
        0.9125478267669678,
        0.9600816369056702
      ],
      "min": [
        -0.9014094471931458,
        -0.9122413992881775,
        -0.9080921411514282
      ],
      "type": "VEC3"
    },
    {
      "bufferView": 1,
      "componentType": 5126,
      "count": 1575,
      "max": [
        0.6362336874008179,
        0.39209309220314026
      ],
      "min": [
        0.30126631259918213,
        0.05712568759918213
      ],
      "type": "VEC2"
    },
    {
      "bufferView": 0,
      "componentType": 5125,
      "count": 2373,
      "type": "SCALAR"
    },
    {
      "bufferView": 2,
      "byteOffset": 37800,
      "componentType": 5126,
      "count": 306,
      "max": [
        0.49913835525512695,
        0.49669957160949707,
        1.5479693412780762
      ],
      "min": [
        -0.4900231957435608,
        -0.4882424473762512,
        -0.04046851396560669
      ],
      "type": "VEC3"
    },
    {
      "bufferView": 2,
      "byteOffset": 41472,
      "componentType": 5126,
      "count": 306,
      "max": [
        0.9930937886238098,
        0.9803664684295654,
        1.0
      ],
      "min": [
        -0.9932569861412048,
        -0.9973482489585876,
        -1.0
      ],
      "type": "VEC3"
    },
    {
      "bufferView": 1,
      "byteOffset": 12600,
      "componentType": 5126,
      "count": 306,
      "max": [
        1.0,
        1.0
      ],
      "min": [
        5.21540641784668e-08,
        0.01408645510673523
      ],
      "type": "VEC2"
    },
    {
      "bufferView": 0,
      "byteOffset": 9492,
      "componentType": 5125,
      "count": 498,
      "type": "SCALAR"
    },
    {
      "bufferView": 2,
      "byteOffset": 45144,
      "componentType": 5126,
      "count": 1099,
      "max": [
        1.9472533464431763,
        1.996030330657959,
        6.821221828460693
      ],
      "min": [
        -1.943181037902832,
        -1.9317750930786133,
        1.193319320678711
      ],
      "type": "VEC3"
    },
    {
      "bufferView": 2,
      "byteOffset": 58332,
      "componentType": 5126,
      "count": 1099,
      "max": [
        0.9044755101203918,
        0.9125478267669678,
        1.0
      ],
      "min": [
        -0.8955666422843933,
        -0.9071902632713318,
        -0.7071086168289185
      ],
      "type": "VEC3"
    },
    {
      "bufferView": 1,
      "byteOffset": 15048,
      "componentType": 5126,
      "count": 1099,
      "max": [
        0.7694645524024963,
        0.9837276935577393
      ],
      "min": [
        0.21823962032794952,
        0.42978978157043457
      ],
      "type": "VEC2"
    },
    {
      "bufferView": 0,
      "byteOffset": 11484,
      "componentType": 5125,
      "count": 1659,
      "type": "SCALAR"
    }
  ],
  "asset": {
    "extras": {
      "author": "Šimon Ustal (https://sketchfab.com/simonustal)",
      "license": "CC-BY-4.0 (http://creativecommons.org/licenses/by/4.0/)",
      "source": "https://sketchfab.com/3d-models/snowy-tree-3december-34bdb919666b499aba1f32bcba9864e9",
      "title": "Snowy Tree - 3December"
    },
    "generator": "Sketchfab-12.68.0",
    "version": "2.0"
  },
  "bufferViews": [
    {
      "buffer": 0,
      "byteLength": 18120,
      "name": "floatBufferViews",
      "target": 34963
    },
    {
      "buffer": 0,
      "byteLength": 23840,
      "byteOffset": 18120,
      "byteStride": 8,
      "name": "floatBufferViews",
      "target": 34962
    },
    {
      "buffer": 0,
      "byteLength": 71520,
      "byteOffset": 41960,
      "byteStride": 12,
      "name": "floatBufferViews",
      "target": 34962
    }
  ],
  "buffers": [
    {
      "byteLength": 113480,
      "uri": "scene.bin"
    }
  ],
  "images": [
    {
      "uri": "textures/Material.002_metallicRoughness.png"
    },
    {
      "uri": "textures/Material.003_baseColor.png"
    }
  ],
  "materials": [
    {
      "doubleSided": true,
      "name": "Material.002",
      "occlusionTexture": {
        "index": 0
      },
      "pbrMetallicRoughness": {
        "metallicFactor": 0.0,
        "metallicRoughnessTexture": {
          "index": 0
        },
        "roughnessFactor": 0.7763932023
      }
    },
    {
      "doubleSided": true,
      "name": "Material.004",
      "pbrMetallicRoughness": {
        "baseColorFactor": [
          0.06725368186183119,
          0.013824629577156525,
          0.0,
          1.0
        ],
        "metallicFactor": 0.2692376678887815
      }
    },
    {
      "doubleSided": true,
      "name": "Material.003",
      "pbrMetallicRoughness": {
        "baseColorTexture": {
          "index": 1
        },
        "metallicFactor": 0.0,
        "roughnessFactor": 0.9678890854811545
      }
    }
  ],
  "meshes": [
    {
      "name": "Cylinder.005_Material.002_0",
      "primitives": [
        {
          "attributes": {
            "NORMAL": 1,
            "POSITION": 0,
            "TEXCOORD_0": 2
          },
          "indices": 3,
          "material": 0,
          "mode": 4
        }
      ]
    },
    {
      "name": "Cylinder.005_Material.004_0",
      "primitives": [
        {
          "attributes": {
            "NORMAL": 5,
            "POSITION": 4,
            "TEXCOORD_0": 6
          },
          "indices": 7,
          "material": 1,
          "mode": 4
        }
      ]
    },
    {
      "name": "Cylinder.005_Material.003_0",
      "primitives": [
        {
          "attributes": {
            "NORMAL": 9,
            "POSITION": 8,
            "TEXCOORD_0": 10
          },
          "indices": 11,
          "material": 2,
          "mode": 4
        }
      ]
    }
  ],
  "nodes": [
    {
      "children": [
        1
      ],
      "matrix": [
        1.0,
        0.0,
        0.0,
        0.0,
        0.0,
        2.220446049250313e-16,
        -1.0,
        0.0,
        0.0,
        1.0,
        2.220446049250313e-16,
        0.0,
        0.0,
        0.0,
        0.0,
        1.0
      ],
      "name": "Sketchfab_model"
    },
    {
      "children": [
        2
      ],
      "matrix": [
        0.009999999776482582,
        0.0,
        0.0,
        0.0,
        0.0,
        0.0,
        0.009999999776482582,
        0.0,
        0.0,
        -0.009999999776482582,
        0.0,
        0.0,
        0.0,
        0.0,
        0.0,
        1.0
      ],
      "name": "ba66abb2b58943658b99b7780b02b034.fbx"
    },
    {
      "children": [
        3,
        6,
        8
      ],
      "name": "RootNode"
    },
    {
      "children": [
        4
      ],
      "matrix": [
        -29.08647719990347,
        -5.518906457566863,
        -95.51711910171437,
        0.0,
        56.63930913109449,
        79.46723428563203,
        -21.83912397841966,
        0.0,
        77.11008775993375,
        -60.45246356562044,
        -19.98834696773717,
        0.0,
        407.6245422363281,
        590.38623046875,
        -100.54539489746094,
        1.0
      ],
      "name": "Light"
    },
    {
      "children": [
        5
      ],
      "matrix": [
        1.0,
        0.0,
        0.0,
        0.0,
        0.0,
        2.220446049250313e-16,
        1.0,
        0.0,
        0.0,
        -1.0,
        2.220446049250313e-16,
        0.0,
        0.0,
        0.0,
        0.0,
        1.0
      ],
      "name": "Object_4"
    },
    {
      "name": "Object_5"
    },
    {
      "children": [
        7
      ],
      "matrix": [
        -65.15581009765468,
        -44.527143038140764,
        -61.41704928909654,
        0.0,
        -32.40135466989878,
        89.5395708958271,
        -30.542085476036902,
        0.0,
        68.59207001076176,
        1.2755314797120858e-05,
        -72.76761921184276,
        0.0,
        735.88916015625,
        495.8309326171875,
        692.5791015625,
        1.0
      ],
      "name": "Camera"
    },
    {
      "name": "Object_7"
    },
    {
      "children": [
        9,
        10,
        11
      ],
      "matrix": [
        100.0,
        0.0,
        0.0,
        0.0,
        0.0,
        -1.629206793918314e-05,
        -99.99999999999868,
        0.0,
        0.0,
        99.99999999999868,
        -1.629206793918314e-05,
        0.0,
        0.0,
        0.0,
        0.0,
        1.0
      ],
      "name": "Cylinder.005"
    },
    {
      "mesh": 0,
      "name": "Cylinder.005_Material.002_0"
    },
    {
      "mesh": 1,
      "name": "Cylinder.005_Material.004_0"
    },
    {
      "mesh": 2,
      "name": "Cylinder.005_Material.003_0"
    }
  ],
  "samplers": [
    {
      "magFilter": 9729,
      "minFilter": 9987,
      "wrapS": 10497,
      "wrapT": 10497
    }
  ],
  "scene": 0,
  "scenes": [
    {
      "name": "Sketchfab_Scene",
      "nodes": [
        0
      ]
    }
  ],
  "textures": [
    {
      "sampler": 0,
      "source": 0
    },
    {
      "sampler": 0,
      "source": 1
    }
  ]
}
